<?xml version="1.0" encoding="utf-8"?>
<!-- Generator: Adobe Illustrator 17.1.0, SVG Export Plug-In . SVG Version: 6.00 Build 0)  -->
<!DOCTYPE svg PUBLIC "-//W3C//DTD SVG 1.1//EN" "http://www.w3.org/Graphics/SVG/1.1/DTD/svg11.dtd">
<svg version="1.1" id="Layer_1" xmlns="http://www.w3.org/2000/svg" xmlns:xlink="http://www.w3.org/1999/xlink" x="0px" y="0px"
	 viewBox="0 0 960 560" enable-background="new 0 0 960 560" xml:space="preserve">
<linearGradient id="SVGID_1_" gradientUnits="userSpaceOnUse" x1="1158.9469" y1="-729.601" x2="1158.9469" y2="-2243.958" gradientTransform="matrix(-0.1566 0 0 -0.2403 661.4911 -175.3231)">
	<stop  offset="0.1429" style="stop-color:#7DABFF"/>
	<stop  offset="0.5793" style="stop-color:#CDE7F6"/>
	<stop  offset="0.5879" style="stop-color:#CFE8F6"/>
</linearGradient>
<polygon fill="url(#SVGID_1_)" points="0,363.9 960,363.9 960,0 0,0 "/>
<linearGradient id="SVGID_2_" gradientUnits="userSpaceOnUse" x1="1814.7751" y1="-2913.593" x2="1814.7751" y2="-2089.1926" gradientTransform="matrix(-0.1566 0 0 -0.2836 764.1938 -266.295)">
	<stop  offset="0" style="stop-color:#628F00"/>
	<stop  offset="1" style="stop-color:#DBFA40"/>
</linearGradient>
<polygon fill="url(#SVGID_2_)" points="960,326.2 0,326.2 0,560 960,560 "/>
<path fill="#99C991" d="M-11,237c0.4,0.2,1,0.7,1.3,1.1c0.3,0.7,1.3,0.2,2.6,0.5c1.7,0.2-1.2,1.6-1.3,1.8c-1.2,1.1,0.7,2.3,2,2.5
	c1.4,0.5-1.3,1.1,0,1.8c1.7,0.9-2.5-3.2,3.8-3.2c3.5,0,0.4,0.9,2.2,1.4c2.3,0.7,1.3-0.9,0.6-2.3c-0.3-0.7-0.6-1.1-0.3-1.4
	c1.4-0.9,1.9-3.4,4.2-1.4c1,0.9,3.2-1.4,4.1,0.9c3.5,0.2,1.3,0,1.3,1.6s2.9,0.5,4.6,0.5c1.6,0,1.6,0.5,2.8,1.6
	c0.6,0.5,0.6,0.5,2,0.5c1.2,0,2.5-0.9,3,0.9c0.4,1.8-0.3,1.4-0.6,1.8c-0.7,1.1-0.4,0.5,1.9,0.9c0.7,0.2,2.6,0.9,1.3,1.1
	c-2.3,0.7,0.1,0.7-0.7,1.6c-0.4,0.5-2.3,0.5-3,0.7c-2,1.1-0.4,0.7,1.6,0.7c1.4,0.5,0.3,0.9,0.6,2.3c0,0.2,0.7,0.2,2-0.5
	c1.9-0.9-2.2-0.7,2.6-0.5c1,0-2.6-0.9-1.3-2.3c2.3-2.5,5.1-1.4,3.5-2.1c-1.9-0.9,1.3-3.4,2.6-2.5c1,0.5,1.3,0,2-1.1
	c1.6-2.1,4.6,0.2,4.2-1.8c-0.1-0.7,2,0.7,2.6-0.2c0.7-0.9,2.2-0.9,2.5,0c0.6,1.6,2.2-0.9,4.1,0c0.3,0.2,1.4,0.7,0.7,1.1
	c-1.7,0.9,0.3,0.7-0.7,1.4c-0.9,0.5-1,1.4-0.9,1.4c1.2,0.7,1.4-0.9,3.2,0c0.9,0.5-1.2,1.4,1.4,1.6c0.9,0,1.9,0.9,1.3,1.1
	c-0.9,0.5,1.6-0.2,1.7,0.2c0.3,0.7-1.2,1.4-0.6,1.6c0.3,0.2,1.7-1.6,3.2-1.6c2.2,0,1.4,0.9,2.2,0.9c3.2-0.5,0.7,0.5,2.9,0.7
	c1.7,0.2,0.1,1.8-0.3,2.3c-0.4,0.5-2.6,0.2-1.2,0.5c0.7,0.2,2.5-0.9,3.8,0c0.4,0.2,0.9,1.4-0.4,2.1c-2.9,1.4-1,1.1,1,0.5
	c1.6-0.7,0.4,0.9,2.2,0.2c1-0.2,1.2,0.9,0.7,0.9c-1.4,0.7,1.7,0.5,2,0.5c3.8,0.2,0.6,2.5,1.9,2.1c1.9-0.9,0.3,0.9,2,0.2
	c1.9-0.7-0.3-0.9,0.7-1.6c1.6,0-1.9-1.8,1.4-2.1c1.6,0-0.4-0.7,3-0.7c0.3,0,0.6-0.5,0.9-0.2c1.3,0.2,0.7,0.9,0.4,0.9
	c-1,0.5,0.9,0.2,1.3,0.5c1.6,0.9,2,1.1,2.8,0.9c0.4-0.2-1.9-1.1-0.6-0.9c2.6,0.2,0.9-0.5,1.9-0.9c1.7-0.9,4.3-0.7,3.6,1.1
	c4.8-1.8,2.6,1.8,3.9,0.7c0.3-0.2,2,1.1,3.9-0.7c2.2-2.3,7.1-0.2,4.8,1.6c1.9-1.6,5.5-1.4,5.5-0.7c0,0.9,1.7,0.9,1.7,0
	c0-1.4,4.8-2.1,5.5,0c0.3,0.7,0.3,0,0.9-0.2c2.5-0.9,3.8,0.7,3.5,1.4c-0.6,1.4-3,1.6-1.6,1.1c3.8-1.1,1.6,1.4,2.8,0.9
	c5.1-1.6,4.8,1.1,5.8,0.2c1-1.1,4.3-0.7,5.2,0c1,0.9,0.6,2.1,0.4,2.5c0.9-0.5,0.7-1.4,4.2-1.4c1,0,3.6,0.9,2.3,2.5
	c2.9-1.1,9.3-2.1,9,3c3.3-0.9,7.4,0,4.5,3.4c2.9-1.6,6.5-0.5,5.9,0.2c0.9,0.2-2.5,5.5-1.9,6c0.6,0.7,2.5-3.9,4.3-3.2
	c3.9,1.6-1.6,5.3,4.6,3.2c0.4-0.2-1.2,4.6-2.2,4.6c11,1.6-2.3-4.4,6.5-2.1c2.6,0.7-1.6,5,2.2,0.7c0.6-0.7,0.4,1.4,2.2,0.9
	c1.3-0.5-1.3,2.5-1.6,3c-1.3,0.9,4.1,0,4.9-0.9c0.6-0.7,1.2-0.9,1.7-0.9c2.2,0,2.2,1.6,2.8,2.1c0.3,0.2,1.6-1.1,0.6-1.1
	c-1.6,0-0.9-1.8,0.3-2.1c8.7-0.7,0.3,3.7,5.5,3.7c4.3,0-2-1.4,2.6-1.4c4.6-0.7,3-0.2,1.6-0.5c-6.5-1.1-0.3-6.2,3-2.8
	c-3.5-4.4,5.4-4.6,4.9-1.6c-0.1,0.7,4.5-3.7,7.8,0.2c4.8-0.7,7.5,2.8,6.9,3.9c-0.1,0.2,2.8-0.7,3-1.1c0.4-0.5-2.6-0.5-2.9-1.4
	c-1.3-3.4,5.2-4.4,6.2-1.6c2.8-4.6,14.3-2.3,10,1.6c-1,0.9-3,0.7-0.3,1.4c2.3-1.1,4.8-1.1,6.8,1.1c1.3,1.6-0.4,2.1,0.6,2.5
	c0.6,0.2,2.5-0.7,3.3,0.9c0.6,1.1-0.9,0.5-0.9,1.8c0,0.5,1.6,0.2,2-0.7c0.3-0.5,2.5-0.9,3.2,0.2c0.3,0.5,0.7,0.7,1.6,0.5
	c1-0.2,2.3-1.4,3.5-0.5s1.9,0.2,2.9,0.7c1.3,0.7,1.2,1.6,2.6,0c0.6-0.5,2-0.7,3-0.5c1.2,0.2,0.7,0,1-0.7c0-0.2,2-1.8,5.6-0.5
	c0.1,0,1.2-1.8,4.1-1.8c6.2,0.2,1,4.6,2,3.9s3.2,0.9,2.8,1.4c-0.6,0.9,2.9-1.4,3.9-0.9c3,1.4,1.6,2.3,0.7,2.8
	c-0.3,2.5,3.6-0.9,2.2,3c-0.4,1.4,4.2-4.1,9.1-0.9c2.5,1.6,1,1.4,3-0.5c2.9-2.5,9.4-1.1,10.4,0.9c1.4,3.4,0.7-0.7,4.6,0
	c3.2,0.5,4.8,1.8,4.8,2.8c1.3-1.1,3-3.7,7.2-3.7c6.5,0,7.5,4.1,3.9,6c5.4-2.1,10.4-2.1,10.9,1.6c3.3-3.2,8.7-1.4,8.3,0.2
	c0,0.2-0.9-2.5,3.2-2.3c2.5,0.2-1-0.9-0.7-2.8c0.1-1.1,2.8-3.2,6.9-0.9c1.6-3.2,9-2.1,8.1,0.2c5.4-0.5-1.6-3.2,4.1-4.4
	c2-0.5,4.8,0.2,5.1,1.8c0,0.2,0-4.6,6.5-2.5c1.6,0.5,0.3,0,0.6-0.5c0.9-3.2,9.1-3,7.7,0.2c2.2-2.1,7.7-0.9,8.3,0.9
	c7.8-4.6,10.4,2.8,4.1,3.7c-2.6,0.2,6.5-1.6,8.8,0.2c3.2,2.5-1.3,4.4-0.6,4.1c7.2-1.6,8,1.6,7.8,2.5c-0.7,3.9,1.6,0.5,3.5,0.2
	c7.8-1.4,6.4,3.7,6.9,3.4c1-1.1,3.2-1.1,4.5-0.7c2.2,0.7,0,2.1,1.6,2.1c2.9,0,3,1.1,2.5,2.1c-0.4,0.5-1.7,0.5-1.3,0.7
	c4.9,1.4-0.9,2.8-1.2,3c-1,0.5-1,0.5-0.6,0.5c1,0,2.2,0.7,2.3,0.9c1.6,3-5.6,3-3.2,3c5.4,0,4.2,3.2,2,3.4c5.4-0.5,2.2,3.7,3.6,3
	c5.4-1.8,4.9,1.6,3.2,2.1c2.5-0.5,4.8-0.5,5.6,0.2c3.5,2.1,5.9,2.1-4.8,1.6c-1.6,0-2.8,0-3.8,0s-1.9,0-3.2,0c-2.5,0-4.5,3-5.4,1.6
	c-0.6-0.9-1.7-1.4-1.7-1.8c0.3-2.3-0.4-0.5-2,1.6c-1,0.5-1-0.7-1.3-1.6c-0.4-0.9-3.6,0.5-4.5,0.9c-2.8,1.4-2.3-0.5-4.6,0
	c-3.2,0.5-1.7,1.1-3.3-0.5c-1.2-1.4-2,0.7-2,1.6c0,1.1-0.7-1.6-1-0.5s-0.7,0-1.3-0.5c-0.7-0.7-0.1,1.4-0.3,1.6
	c-0.4,0.2-0.6-0.2-0.6-0.5c-1.3-2.1,0.1,0.2-2.3-0.9c-2-1.1-0.4,1.8-1.6,0c-0.7-1.1,0.1,0.9-0.6,0.5c-1.7-1.6-2,0.5-2,0
	c0-2.3-1-0.2-2-0.5c-1,0.5-1.4,1.1-2.3,0.5c-1-0.9-0.9-0.7-1.6,0.5c-0.1,0.2,0.4,0.9-0.3,0.5c-0.6-0.5-0.6-0.7-1-1.1
	c-1-0.9-0.6,0.5-1,0.9c0,0-0.9-1.4-1-1.4c-0.6-0.2-0.3,0.9-0.3,0.9c-0.3,0.9-2.8-2.3-2.9-1.6c-0.1,0.5-0.3,0.7-0.3,1.1
	c-0.1,0.9-0.7,0-1.3-0.7c-0.1-0.2-0.6-1.4-0.6-0.5c0,1.1,0.3,1.6-0.6,0.5c-1-1.4-1.6,0.2-1.6,0.9c-2.2-1.6-1-0.9-1.3-0.7
	c-0.4,0.5-0.7-0.7-1-1.1c0,0-0.1-0.7-0.3-0.7c-0.7-0.2-0.6,1.1-0.6,1.4c0,0.2-0.3,0.2-0.3,0.5c-0.1,0.5,0.1,0.2-0.3-0.2
	c-0.6-0.5-1.7-2.5-1.9-0.9c0,0.5-0.3,0.5-0.3,0.9c-0.1,0.5,0.1,0.7-0.3,0c-0.1-0.2-0.6-1.1-0.6-1.1c-0.6-0.2-0.6,1.4-0.6,1.6
	s0,0.7-0.6,0.2c-0.3-0.2-0.6-0.2-0.6-0.5c-1.6,0.7-0.7,0.5-1.4,1.1c-0.1,0.2-0.3-1.6-1.4-1.1c-0.6,0.2-1.2,1.4-1.3,1.4
	s-0.3-1.1-1-0.9c-0.6,0.2-0.7,0.7-1,0.9c0,0-0.6-0.7-0.9-0.7c-1.2-0.5-0.7,1.1-1.7,0c-0.6-0.5-1,0-1.3,0.5s-0.9-0.5-1.2-0.7
	c-1-0.7-1.2,0.5-1.6,0.9c-0.4,0.2-0.9-1.1-2.3-0.5c-1.6,0.2-1.6-0.9-2.6-0.5c-0.4,0.2-2,1.1-2.3,0.9c-2.6-1.1-1.2-1.1-3.5,0
	c-0.9,0.5-1-1.6-2.8-0.5c-1,0.7-0.3-1.4-1.4-0.2c-1.2,0.9-0.6-0.9-1.6-0.7c-1.2,0.2-1,2.1-1.4,0.9c-1.2-2.5-2.9,0.5-3.2,0
	c-0.9-1.6-2.2-0.2-2.5,0.7c0,0-1.2-1.4-1.7-1.6c-0.6-0.2-1.3,0.7-1.4,0.9c-0.3,0.5-0.6-1.6-1.7-1.4c-0.1,0-1,0.7-1,0.9
	c-1.3,1.1-0.6,0-1.6-0.2c-0.7-0.2-0.4,1.1-0.4,0.9c0-0.5-0.4-0.9-0.4,0s-0.3-0.2-0.3,0c-0.4,1.6,0.3-0.5-1.6,0.5
	c-0.9,0.5-0.4,0-0.4-0.5s-1,0.7-1.2,0.9c-0.6,0.7-0.3,0.2-0.1-0.2c0.3-1.4-0.1-1.6-1.2-0.2c-0.4,0.7,0.3-1.1-0.3-1.6
	c-0.4-0.5-1.9,1.1-2.2,1.4c-0.1,0.2-0.1-1.4-0.6-1.6c0,0-1.9,1.4-2.2,1.6c-0.7,0.5,0.1-2.3-1.4-0.9c-0.4,0.5-1.2,1.8-2,0.9
	c-0.4-0.5-1.2-1.4-2.2-0.9s-1.4,2.1-2.5,0.7c-0.1-0.2-0.6-0.9-1.2-0.9c-0.4,0-0.4,0.5-1,0.5c-3.5,0.2-3.9-1.4-4.2-1.1s-0.6,3-1,2.5
	c-0.1-0.2-0.6-3.4-1.6-2.5c-0.7,0.7-0.7,1.8-1,1.4c-0.4-0.7,0.1-2.3-1.3-0.9c-0.9,0.9-0.3,1.8-0.6,0.9c-1.3-3-1.2-0.9-3.3,0.5
	c-0.6,0.2-1.7-3.7-4.2-1.6c-2.3,1.8-0.7,2.5-2.9,0.7c-1.2-0.9-2.9-0.2-3.6,0.5c-1,0.9-5.2-0.9-9.1,0.7c-1.6,0.7-2.3-1.8-3.9-1.4
	c-1.2,0.2-1.9,1.8-2.6,0.9c-1.7-2.1-0.9,1.4-3.3-0.9c-0.9-0.9-1.4,0.7-2,0.5c-1.6-0.5-2.2-0.7-3.6,0.5c-9.3,0.9-6.5-2.1-8.3-0.5
	c-0.3,0.2-5.9,1.6-6.9-0.2c-2-3.7,0,0.2-3.8,1.4c-6.5,1.6-2.6-3.9-4.6-1.4c-2.3,3-6.1,2.1-6.2,0.9c-0.7-4.4-0.9,1.8-1.9,1.6
	c-0.7,0-1.9-1.6-1.9-1.6c0-0.7,0.6-4.8-1.2,0c-0.6,1.6-4.6,0-4.1-2.3c-2.2,1.8-0.3,3.9-0.6,3.9c-5.2-2.5-5.5-4.4-5.5-1.8
	c0.1,3.7-17.8,0.5-19.5-1.4c-0.4-0.5-1.3,1.6-1.6,1.8c-0.7,0.9-0.6,1.4-1.3,0.5c-2-2.1-1.7,1.1-2.3,0.5c-5.4-6.2-3.5-3.2-2,0
	c-1.3-0.9-3.8-0.9-4.9-2.1c-0.3-0.2,0,0.5,0.7,0.9c0.1,2.3-3,0.9-4.8,1.4c-7.1-3.7-5.9,0.5-9.1,0.2c-8.3-0.7-1.7-3.7-5.4,0.5
	c-0.6,0.7-4.8,0.7-6.9,0.7c-4.9,1.8-21-0.9-28.8-0.9c-1.3,0-3.6,0-4.3,0.5c-0.6,0.5-5.6-0.9-6.5-1.1c-3.5-0.9-4.9,2.3-6.9,0.5
	c-0.9-0.7-4.3,1.8-5.9,0.5c-3.8-3-15.3,0.9-18.2,0c-0.7-0.2-3-1.4-3.6-0.7c-4.1,5-5.8-0.7-5.1-0.9c-7.2,6-6.7-0.7-11,0.5
	c-3.2,0.9-0.7,0.5-2,0.5c-0.9,0-1.6,1.8-2.5,2.3c0,0-1.6-1.8-6.8-1.8c-3.8,0-9.6,0.7-12.7,1.4c-3.8,0.9-5.6-3-8.7-1.1
	c-4.5,2.8-10.1,2.1-14.6,0.7c-3.8-1.1-7.5,0-10,0c-4.5,0-8.5,0.2-11,0c-2.3-0.2-4.2,0-5.8,0v-95H-11V237z"/>
<linearGradient id="SVGID_3_" gradientUnits="userSpaceOnUse" x1="314.2393" y1="-2659.8274" x2="790.1672" y2="-1639.2111" gradientTransform="matrix(-0.1832 0 0 -0.1401 803.4985 6.7082)">
	<stop  offset="9.340660e-002" style="stop-color:#689913"/>
	<stop  offset="0.967" style="stop-color:#ACD126"/>
</linearGradient>
<path fill="url(#SVGID_3_)" d="M960,214.2c-0.5,0.3-1.4,1-1.6,1.4c-0.5,0.9-1.7,0.3-3.3,0.4c-2.2,0.2,1.4,2.2,1.6,2.4
	c1.5,1.3-0.9,2.9-2.5,3.3c-1.7,0.6,1.7,1.4,0,2.4c-2.2,1.2,2.9-4.1-4.6-4.1c-4.4,0-0.5,1.1-2.7,1.7c-2.9,0.8-1.6-1.3-0.8-3
	c0.3-0.8,0.7-1.4,0.3-1.8c-1.8-1.1-2.3-4.3-5.2-1.8c-1.4,1.1-3.9-1.8-5.1,1.2c-4.4,0.3-1.6,0-1.6,1.9c0,2-3.6,0.4-5.7,0.4
	s-1.9,0.8-3.4,1.9c-0.7,0.6-0.7,0.8-2.5,0.6c-1.5-0.1-3.2-1.3-3.7,1.3c-0.5,2.3,0.5,1.7,0.8,2.3c1,1.5,0.6,0.4-2.3,1.1
	c-0.9,0.2-3.3,1.1-1.7,1.5c2.9,0.9-0.2,0.9,0.9,2.2c0.6,0.7,2.8,0.4,3.7,1c2.5,1.4,0.6,1-2,1c-1.8,0.7-0.3,1.1-0.8,2.9
	c-0.1,0.3-1,0.3-2.6-0.4c-2.3-1.2,2.6-1-3.3-0.6c-1.4,0.1,3.3-1.1,1.6-3.1c-2.9-3.2-6.3-1.7-4.3-2.6c2.4-1.1-1.6-4.3-3.3-3.4
	c-1.4,0.8-1.6-0.1-2.6-1.4c-1.9-2.6-5.8,0.2-5.2-2.3c0.2-1-2.6,0.8-3.3-0.2c-0.8-1.2-2.7-1-3.1,0c-0.8,1.9-2.8-1.2-5,0
	c-0.3,0.2-1.7,1-1,1.4c2.2,1.3-0.3,1,1,1.8c1.1,0.7,1.2,1.7,1.1,1.8c-1.4,1-1.8-1.1-4,0c-1,0.4,1.5,1.8-1.7,2
	c-1,0.1-2.4,1.1-1.7,1.4c1.1,0.6-2-0.2-2.2,0.2c-0.3,1,1.4,1.8,0.8,2.1c-0.3,0.2-2-2-4-2c-2.7,0-1.7,1.3-2.6,1.2c-4-0.7-1,0.7-3.5,1
	c-2.2,0.2-0.2,2.4,0.2,3c0.6,0.7,3.3,0.2,1.5,0.7c-0.9,0.2-3.2-1.1-4.6-0.1c-0.5,0.3-1,1.8,0.6,2.5c3.5,1.8,1.2,1.4-1.1,0.4
	c-1.9-0.8-0.6,1.1-2.7,0.4c-1.1-0.3-1.4,1.1-0.9,1.3c1.7,0.9-2.2,0.6-2.5,0.7c-4.8,0.3-0.7,3.4-2.3,2.6c-2.4-1.1-0.5,1.1-2.5,0.3
	c-2.4-0.8,0.5-1-0.9-2c-2-0.1,2.3-2.4-1.8-2.5c-1.9,0,0.5-1-3.9-0.9c-0.3,0-0.7-0.4-1.1-0.3c-1.5,0.4-0.9,1.1-0.5,1.3
	c1.2,0.8-1,0.2-1.6,0.6c-1.9,1.2-2.5,1.5-3.4,1.2c-0.6-0.2,2.4-1.4,0.8-1.3c-3.2,0.3-1-0.6-2.3-1.3c-2.2-1.3-5.4-1-4.4,1.4
	c-6-2.3-3.3,2.3-4.9,0.9c-0.5-0.4-2.6,1.3-4.9-1c-2.8-3-8.8-0.3-5.9,1.9c-2.3-2.2-6.8-1.9-6.8-0.8c0,1-2.2,1.3-2.3-0.1
	c-0.1-1.9-6-2.5-6.9,0.1c-0.3,0.9-0.3,0.1-1.1-0.2c-2.9-1.3-4.8,1-4.4,1.7c0.8,1.8,3.9,2.1,2,1.5c-4.8-1.4-1.9,1.7-3.5,1.2
	c-6.2-2.1-5.9,1.4-7.1,0.1c-1.2-1.4-5.4-0.9-6.6,0.1c-1.2,1.1-0.8,2.8-0.5,3.3c-1.1-0.7-0.9-1.9-5.3-1.7c-1.2,0-4.5,1.1-2.8,3.2
	c-3.6-1.5-11.6-2.6-11.2,3.9c-4.2-1.3-9.2,0.1-5.7,4.5c-3.5-2.1-8.2-0.6-7.4,0.2c-1.1,0.3,2.9,7.1,2.3,7.8c-0.8,0.8-3.2-5-5.4-4.1
	c-4.9,1.9,2,7-5.8,4.1c-0.6-0.2,1.5,6,2.8,6c-13.7,1.9,2.9-5.6-8.2-2.6c-3.3,0.9,1.9,6.5-2.7,1c-0.8-0.9-0.6,1.8-2.7,1.1
	c-1.6-0.4,1.6,3.4,2,3.8c1.7,1.2-5.1,0.1-6.1-1.1c-0.8-1-1.5-1.3-2.2-1.3c-2.6,0.1-2.7,2-3.4,2.5c-0.5,0.3-2-1.4-0.8-1.4
	c1.9,0,1.1-2.4-0.3-2.6c-10.8-1-0.3,4.9-6.9,4.9c-5.3,0,2.6-1.7-3.3-1.9c-5.8-1-3.7-0.4-2-0.8c8.2-1.4,0.3-7.9-3.7-3.6
	c4.4-5.7-6.7-6-6.1-2c0.1,1-5.7-4.7-9.9,0.3c-5.9-0.9-9.4,3.5-8.6,5c0.2,0.3-3.4-1-3.7-1.4c-0.6-0.8,3.3-0.8,3.6-1.7
	c1.7-4.5-6.6-5.7-7.7-2.2c-3.4-6-17.9-2.9-12.5,2.2c1.2,1.1,3.9,1,0.2,1.7c-2.8-1.5-5.9-1.5-8.5,1.5c-1.6,2,0.5,2.5-0.8,3.2
	c-0.8,0.4-3.2-1-4.2,1.1c-0.7,1.4,1,0.8,1,2.3c0,0.7-1.9,0.2-2.5-0.8c-0.2-0.4-3.2-1.2-3.9,0.2c-0.3,0.7-0.9,1-1.9,0.8
	c-1.2-0.3-2.9-1.8-4.3-0.6c-1.4,1.2-2.4,0.3-3.6,0.9c-1.6,0.9-1.4,2-3.3,0.1c-0.8-0.7-2.6-0.9-3.7-0.6c-1.5,0.3-1,0.1-1.2-0.9
	c-0.1-0.3-2.5-2.4-6.9-0.7c-0.1,0.1-1.4-2.3-5-2.2c-7.7,0.2-1.2,6-2.5,5c-1.2-1-3.9,1.1-3.5,1.8c0.8,1.2-3.6-1.8-4.9-1.2
	c-3.7,1.7-1.9,3-0.9,3.5c0.5,3.2-4.5-1.2-2.7,4c0.6,1.7-5.2-5.3-11.3-1.1c-3.1,2.1-1.2,1.8-3.9-0.4c-3.6-3.2-11.8-1.7-13,1.3
	c-1.8,4.4-0.8-0.9-5.7-0.2c-4,0.6-6,2.4-6,3.5c-1.6-1.5-3.9-4.7-8.9-4.6c-8.2,0.1-9.5,5.3-4.9,7.5c-6.7-2.8-13-2.8-13.5,1.9
	c-4.2-4.1-10.9-1.9-10.4,0.1c0.1,0.3,1-3.3-4-3c-3.1,0.2,1.2-1.2,0.9-3.6c-0.2-1.4-3.4-4.2-8.6-1.3c-2-4.2-11.3-2.8-10.1,0.4
	c-6.7-0.8,2-4.1-5.1-5.6c-2.5-0.6-6,0.2-6.3,2.3c-0.1,0.3,0-5.8-8.2-3.2c-2,0.7-0.3,0-0.8-0.6c-1-4.1-11.4-4.1-9.6,0.3
	c-2.7-2.6-9.5-1.3-10.2,1.3c-9.7-5.8-12.9,3.6-5.1,4.6c3.3,0.4-8-2-11,0.3c-4,3.1,1.7,5.6,0.8,5.4c-9.1-2-10,1.9-9.7,3.2
	c1,5.1-1.8-0.9-4.1-1.2c-9.7-1.8-6.6,3.4-7.1,3.1c-1.2-1.4-5.3-2-7-1.4c-2.7,0.8,0,4.2-2,4.1c-3.6-0.2-3.9,1.5-2.9,2.5
	c0.5,0.7,2,0.7,1.6,0.9c-6.1,1.9,0.8,4.6,1.1,4.9c1.4,0.6,1.6-0.6,1-0.6c-1.4-0.1-2.7,0.9-2.9,1.2c-1.9,3.8,4.2,3.8,1.2,3.8
	c-6.6,0-6.3,6-3.6,6.5c-6.7-0.7-2.4,4.5-4.2,3.6c-0.2,0,1.6,1.3,0.3,2.8c-0.8,0.9-4.9,2.8,4,3.2c1.2,0,1-0.8,2.5-1
	c3.1,0.1,5.7,3.8,6.8,2.2c0.8-1.1,2.2-1.7,2.2-2.3c-0.2-2.9,0.6-0.4,2.6,2.2c1.2,0.6,1.1-1,1.7-2.2s4.4,0.8,5.7,1.3
	c3.5,1.7,2.9-0.4,5.7,0c4.1,0.7,2.2,1.7,4.1-0.8c1.5-1.8,2.5,0.8,2.5,1.9c0,1.4,1-1.9,1.2-0.8c0.3,1.4,0.9,0,1.6-0.8
	c0.9-1,0.1,1.8,0.5,1.9c0.6,0.2,0.8-0.3,0.8-0.4c1.7-2.8-0.2,0.4,2.8-1.2c2.6-1.3,0.6,2.2,2,0c0.9-1.4-0.1,1.3,0.8,0.4
	c2.3-2,2.5,0.6,2.5,0c0-3.1,1.4-0.3,2.5-0.4c1.1,0.6,1.8,1.4,2.8,0.4c1.2-1.2,1-1,2,0.8c0.2,0.3-0.5,1.2,0.5,0.8
	c0.8-0.4,0.7-0.9,1.2-1.4c1.2-1.3,0.8,0.8,1.2,1.2c0.1,0.1,1.1-1.7,1.2-1.7c0.7-0.3,0.3,1,0.5,1.2c0.2,1.2,3.5-3,3.7-1.9
	c0.1,0.6,0.3,0.9,0.5,1.4c0.2,1.3,1-0.1,1.6-1c0.2-0.3,0.8-1.8,0.8-0.4s-0.3,2.2,0.8,0.4c1.2-1.8,2,0.3,2,1.2c2.7-2.1,1.2-1.3,1.6-1
	c0.6,0.6,0.9-0.8,1.2-1.4c0-0.1,0.2-0.9,0.5-1c0.9-0.4,0.7,1.4,0.8,1.7s0.3,0.3,0.5,0.4c0.1,0.8-0.1,0.3,0.5-0.2
	c0.8-0.8,2.2-3.3,2.5-1.2c0,0.4,0.3,0.8,0.5,1.2c0.1,0.8-0.1,1,0.5,0c0.1-0.2,0.7-1.3,0.8-1.4c0.7-0.3,0.8,1.7,0.8,1.9
	c0,0.4,0,0.9,0.8,0.2c0.3-0.2,0.7-0.3,0.8-0.8c2,0.8,0.9,0.7,1.8,1.7c0.2,0.2,0.5-2.1,1.8-1.4c0.7,0.3,1.5,1.8,1.6,1.7
	c0.2-0.1,0.3-1.4,1.2-1.2c0.8,0.2,0.9,0.9,1.2,1.1c0,0,0.8-0.9,1-1c1.5-0.6,0.9,1.4,2.3,0.1c0.7-0.6,1.2,0,1.6,0.4
	c0.5,0.6,1-0.7,1.5-1c1.1-1,1.4,0.8,2,1.1c0.6,0.3,1-1.7,2.8-0.8c2,0.2,1.9-1.2,3.3-0.8c0.6,0.2,2.5,1.3,2.8,1.2
	c3.3-1.4,1.5-1.4,4.3-0.1c1,0.4,1.2-2,3.5-0.4c1.2,0.8,0.3-1.8,1.8-0.3c1.4,1.3,0.8-1.2,2-0.9c1.5,0.4,1.2,2.6,1.8,1.2
	c1.5-3.2,3.5,0.6,3.9-0.1c1.1-2,2.7-0.4,3.1,1c0,0.1,1.5-1.7,2.3-1.9c0.7-0.2,1.7,1,1.8,1.2c0.3,0.4,0.7-1.9,2.3-1.8
	c0.2,0,1.2,1,1.2,1.2c1.7,1.4,0.8,0,2-0.3c0.9-0.2,0.6,1.5,0.6,1.3c0-0.8,0.6-1.2,0.6-0.1c0,1.3,0.3-0.3,0.5-0.1
	c0.6,2.1-0.3-0.7,2,0.7c1,0.6,0.6,0,0.6-0.7s1.2,1,1.5,1.2c0.8,0.9,0.3,0.2,0.2-0.3c-0.5-1.7,0.1-2.1,1.5-0.2
	c0.6,0.8-0.3-1.5,0.5-2.2c0.6-0.4,2.3,1.4,2.7,1.8c0.1,0.2,0.1-1.9,0.8-1.9c0.1,0,2.3,1.7,2.6,1.9c1,0.6-0.1-3,1.8-1.1
	c0.6,0.6,1.4,2.4,2.5,1.1c0.5-0.6,1.4-1.7,2.6-1.1c1.2,0.6,1.9,2.8,3.1,1c0.2-0.3,0.8-1.1,1.5-1.1c0.6,0,0.6,0.4,1.2,0.6
	c4.3,0.4,4.9-1.8,5.3-1.4c0.3,0.2,0.8,3.8,1.2,3.1c0.1-0.2,0.7-4.4,2-3.1c1,1,0.8,2.3,1.2,1.7c0.6-0.8-0.1-3,1.6-1.2
	c1,1,0.3,2.4,0.8,1.2c1.6-4,1.5-1,4.1,0.4c0.7,0.4,2.2-4.7,5.3-2.2c2.9,2.3,0.8,3.3,3.7,1c1.5-1.2,3.5-0.2,4.5,0.8
	c1.2,1.2,6.6-1.3,11.4,1c1.9,0.9,2.8-2.3,4.9-1.7c1.5,0.4,2.4,2.4,3.3,1.2c2-2.8,1,1.7,4.1-1.2c1.1-1,1.8,0.9,2.5,0.8
	c2-0.6,2.7-1,4.5,0.4c11.6,1.2,8.2-2.5,10.3-0.6c0.3,0.3,7.5,2,8.6-0.2c2.5-4.6,0,0.4,4.6,1.7c8.2,2.2,3.3-5.1,5.8-1.7
	c2.9,3.9,7.6,2.8,7.8,1.2c0.9-5.5,1,2.3,2.3,2.2c0.9-0.1,2.4-1.9,2.4-2.2c0-1-0.8-6.2,1.4-0.1c0.7,1.9,5.8,0,5-2.9
	c2.7,2.3,0.3,5.1,0.7,4.9c6.6-3.2,6.9-5.7,6.8-2.3c-0.2,4.6,22.1,0.6,24.3-1.7c0.5-0.6,1.6,1.9,2,2.4c0.9,1.1,0.7,1.8,1.6,0.8
	c2.6-2.8,2.2,1.5,2.8,0.8c6.7-7.9,4.2-4.3,2.5,0c1.6-1.3,4.8-1.2,6.1-2.6c0.2-0.2,0,0.6-0.9,1.1c-0.2,2.9,3.7,1.1,6,1.9
	c8.8-4.7,7.4,0.7,11.3,0.3c10.3-1,2.2-4.9,6.7,0.7c0.7,0.8,5.9,0.8,8.7,0.8c6.1,2.4,26.2-1.2,35.9-1.2c1.6,0,4.4-0.1,5.3,0.8
	c0.7,0.7,7.1-1.1,8.2-1.4c4.4-1.3,6.2,3,8.6,0.4c1-0.8,5.4,2.3,7.5,0.8c4.8-3.8,19.1,1.3,22.7,0c0.9-0.3,3.7-1.9,4.5-0.9
	c5.1,6.4,7.2-0.9,6.2-1.3c9.1,7.7,8.4-0.8,13.6,0.8c4.1,1.2,0.8,0.4,2.5,0.4c1.1,0,2,2.4,3.2,3c0.1,0,2-2.2,8.5-2.3
	c4.6-0.1,11.9,0.9,15.9,1.8c4.6,1,6.9-4,10.9-1.4c5.5,3.6,12.6,2.5,18.2,0.9c4.6-1.4,9.3,0,12.6-0.1c5.7-0.1,10.6,0.4,13.7,0
	c2.9-0.3,5.2-0.1,7.2,0L960,214.2L960,214.2z"/>
<g>
	
		<linearGradient id="SVGID_4_" gradientUnits="userSpaceOnUse" x1="842.2789" y1="-1912.4175" x2="839.8524" y2="-1773.4031" gradientTransform="matrix(0.3953 7.062880e-003 0 -0.5235 -109.0909 -810.0858)">
		<stop  offset="0" style="stop-color:#C3DCF7"/>
		<stop  offset="0.95" style="stop-color:#E3F0FF"/>
	</linearGradient>
	<path fill="url(#SVGID_4_)" d="M167,150.6c-11.4-10.2,3.3-27.9,14.9-19.9c7.1-12,22.1-6.7,20.6,6.5c-0.5,4.6-1.7,1.1,2.7,0.2
		c10-2.2,17.2,11.3,9.2,17c11.1,2.7,8.1,12.8,6.6,16.9c3-8.2,14.8-11.7,19.5,0.6c1.4-24.7,25.1-14.2,25-3.9c2-4.1,8.8,0.5,5.5,5.7
		c2.5-3.8,12.6-1.6,9.3,9.2c12.6-14.6,20.1,12.6,14.7,13.2c-1.2,0.1-48.5-0.5-50.1-0.5c-6.4-0.1-18.6-0.2-29-0.7
		c-18.8-1-39.2,2.6-57.5,0.2c-12.2-0.4-9.1-21.4,4.3-20.8C155.5,171.7,149.4,153.9,167,150.6L167,150.6z"/>
	
		<linearGradient id="SVGID_5_" gradientUnits="userSpaceOnUse" x1="2689.248" y1="-1843.4255" x2="2689.248" y2="-1699.7251" gradientTransform="matrix(-0.2845 5.188656e-003 0 -0.3846 891.5977 -526.0359)">
		<stop  offset="0" style="stop-color:#C3DCF7"/>
		<stop  offset="0.95" style="stop-color:#E3F0FF"/>
	</linearGradient>
	<path fill="url(#SVGID_5_)" d="M167.3,160.9c8.2-7.8-2.4-21.3-10.7-15.3c-5.1-9.2-15.9-5.2-14.8,5c0.4,3.5,1.2,0.8-2,0.1
		c-7.2-1.6-12.4,8.6-6.6,13c-8,2.1-5.8,9.8-4.7,12.9c-2.2-6.3-10.7-9-14,0.5c-1-19-18.1-10.8-18-3c-1.5-3.2-6.3,0.4-4,4.4
		c-1.8-2.9-9.1-1.2-6.7,7.1c-9.1-11.3-14.5,9.6-10.6,10.1c0.9,0.1,34.9-0.4,36.1-0.4c4.6-0.1,13.4-0.1,20.9-0.5
		c13.5-0.8,28.2,2,41.4,0.2c8.8-0.3,6.5-16.4-3.1-16C175.5,177,179.9,163.3,167.3,160.9L167.3,160.9z"/>
</g>
<g>
	
		<linearGradient id="SVGID_6_" gradientUnits="userSpaceOnUse" x1="2229.5808" y1="-1787.3634" x2="2227.1543" y2="-1648.3488" gradientTransform="matrix(0.3953 7.062880e-003 0 -0.5235 -109.0909 -810.0858)">
		<stop  offset="0" style="stop-color:#C3DCF7"/>
		<stop  offset="0.95" style="stop-color:#E3F0FF"/>
	</linearGradient>
	<path fill="url(#SVGID_6_)" d="M715.4,94.9C704,84.8,718.6,67.1,730.3,75c7.1-12,22.1-6.7,20.6,6.5c-0.5,4.6-1.7,1.1,2.7,0.2
		c10-2.2,17.2,11.3,9.2,17c11.1,2.7,8.1,12.8,6.6,16.9c3-8.2,14.8-11.7,19.5,0.6c1.4-24.7,25.1-14.2,25-3.9c2-4.1,8.8,0.5,5.5,5.7
		c2.5-3.8,12.6-1.6,9.3,9.2c12.6-14.6,20.1,12.6,14.7,13.2c-1.2,0.1-48.5-0.5-50.1-0.5c-6.4-0.1-18.6-0.2-29-0.7
		c-18.8-1-39.2,2.6-57.5,0.2c-12.2-0.4-9.1-21.4,4.3-20.8C703.9,116.1,697.8,98.2,715.4,94.9L715.4,94.9z"/>
	
		<linearGradient id="SVGID_7_" gradientUnits="userSpaceOnUse" x1="761.6557" y1="-1724.6892" x2="761.6557" y2="-1580.989" gradientTransform="matrix(-0.2845 5.188656e-003 0 -0.3846 891.5977 -526.0359)">
		<stop  offset="0" style="stop-color:#C3DCF7"/>
		<stop  offset="0.95" style="stop-color:#E3F0FF"/>
	</linearGradient>
	<path fill="url(#SVGID_7_)" d="M715.7,105.2c8.2-7.8-2.4-21.3-10.7-15.3c-5.1-9.2-15.9-5.2-14.8,5c0.4,3.5,1.2,0.8-2,0.1
		c-7.2-1.6-12.4,8.6-6.6,13c-8,2.1-5.8,9.8-4.7,12.9c-2.2-6.3-10.7-9-14,0.5c-1-19-18.1-10.8-18-3c-1.5-3.2-6.3,0.4-4,4.4
		c-1.8-2.9-9.1-1.2-6.7,7.1c-9.1-11.3-14.5,9.6-10.6,10.1c0.9,0.1,34.9-0.4,36.1-0.4c4.6-0.1,13.4-0.1,20.9-0.5
		c13.5-0.8,28.2,2,41.4,0.2c8.8-0.3,6.5-16.4-3.1-16C723.9,121.4,728.3,107.7,715.7,105.2L715.7,105.2z"/>
</g>
<g>
	
		<linearGradient id="SVGID_8_" gradientUnits="userSpaceOnUse" x1="1388.9547" y1="-1729.8151" x2="1386.5283" y2="-1590.8005" gradientTransform="matrix(0.3953 7.062880e-003 0 -0.5235 -109.0909 -810.0858)">
		<stop  offset="0" style="stop-color:#C3DCF7"/>
		<stop  offset="0.95" style="stop-color:#E3F0FF"/>
	</linearGradient>
	<path fill="url(#SVGID_8_)" d="M383.1,58.9c-11.4-10.2,3.2-27.9,14.9-20c7.1-12,22.1-6.7,20.6,6.5c-0.5,4.6-1.7,1.1,2.7,0.2
		c10-2.2,17.2,11.3,9.2,17c11.1,2.7,8.1,12.8,6.6,16.9c3-8.2,14.8-11.7,19.5,0.6c1.4-24.7,25.1-14.2,25-3.9c2-4.1,8.8,0.5,5.5,5.7
		c2.5-3.8,12.6-1.6,9.3,9.2c12.6-14.6,20.1,12.6,14.7,13.2c-1.2,0.1-48.5-0.5-50.1-0.5c-6.4-0.1-18.6-0.2-29-0.7
		c-18.8-1-39.2,2.6-57.5,0.2c-12.2-0.4-9.1-21.4,4.3-20.8C371.6,80,365.5,62.2,383.1,58.9L383.1,58.9z"/>
	
		<linearGradient id="SVGID_9_" gradientUnits="userSpaceOnUse" x1="1929.67" y1="-1615.1616" x2="1929.67" y2="-1471.4614" gradientTransform="matrix(-0.2845 5.188656e-003 0 -0.3846 891.5977 -526.0359)">
		<stop  offset="0" style="stop-color:#C3DCF7"/>
		<stop  offset="0.95" style="stop-color:#E3F0FF"/>
	</linearGradient>
	<path fill="url(#SVGID_9_)" d="M383.4,69.1c8.2-7.8-2.4-21.3-10.7-15.3c-5.1-9.2-15.9-5.2-14.8,5c0.4,3.5,1.2,0.8-2,0.1
		c-7.2-1.6-12.4,8.6-6.6,13c-8,2.1-5.8,9.8-4.7,12.9c-2.2-6.3-10.7-9-14,0.5c-1-19-18.1-10.8-18-3c-1.5-3.2-6.3,0.4-4,4.4
		c-1.8-2.9-9.1-1.2-6.7,7.1c-9.1-11.3-14.5,9.6-10.6,10.1c0.9,0.1,34.9-0.4,36.1-0.4c4.6-0.1,13.4-0.1,20.9-0.5
		c13.5-0.8,28.2,2,41.4,0.2c8.8-0.3,6.5-16.4-3.1-16C391.6,85.3,396,71.6,383.4,69.1L383.4,69.1z"/>
</g>
</svg>
