<?xml version="1.0" encoding="utf-8"?>
<!-- Generator: Adobe Illustrator 17.1.0, SVG Export Plug-In . SVG Version: 6.00 Build 0)  -->
<!DOCTYPE svg PUBLIC "-//W3C//DTD SVG 1.1//EN" "http://www.w3.org/Graphics/SVG/1.1/DTD/svg11.dtd">
<svg version="1.1" id="Layer_1" xmlns="http://www.w3.org/2000/svg" xmlns:xlink="http://www.w3.org/1999/xlink" x="0px" y="0px"
	 viewBox="0 0 339 339" enable-background="new 0 0 339 339" xml:space="preserve">
<path d="M161.4,320.6c-1.8,0-3.5,0-5.3,0c-2.3-1.6-4.9-2.9-6.9-4.9c-23.9-22.8-47.7-45.7-71.5-68.7c-1.7-1.6-3.3-2.1-5.6-2.1
	C54.6,245,37,245,19.4,245c-8.6,0-15.2-4.7-18.3-12.7c-0.3-0.9-0.8-1.8-1.2-2.6c0-39.9,0-79.7,0-119.6c0.2-0.4,0.5-0.7,0.6-1.2
	C3.4,99,10.2,94,20.6,94c17.5,0,34.9,0,52.4-0.1c1.5,0,3.4-0.9,4.5-2c23.2-22,46.2-44.1,69.4-66.1c3-2.8,6.6-5,9.9-7.5
	c1.8,0,3.5,0,5.3,0c4.2,2.2,6.3,5.8,6.9,10.3c0.6,3.9,1,7.9,1,11.9c0.1,73,0.1,146.1,0.1,219.1c0,14.1,0.2,28.1-0.1,42.2
	C169.7,309.1,169,316.5,161.4,320.6z"/>
<path d="M194.6,320.6c-4.6-2.8-6-6.9-5.8-12.1c0.2-4.6,0-9.3,0-13.9c0.1-7.3,3.5-11.1,10.6-11.8c50.4-5.3,89.8-40.7,100.5-90.2
	c10.4-48.2-14.1-100-58.1-122.8c-12.9-6.7-26.5-11-41-12.4c-9.2-0.9-12-4.1-12.1-13.2c0-4.8,0-9.5,0-14.3c0-7.7,4.2-11.1,11.8-10.5
	c27.5,2.2,52.8,10.9,75.2,27.1c35.9,25.9,57.1,60.9,63,104.9c0.4,3.1,0.8,6.1,1.2,9.2c0,6.4,0,12.8,0,19.3c-0.2,0.7-0.4,1.5-0.6,2.2
	c-1.6,9.3-2.3,19-5,28c-16.8,55.8-53.6,91.5-109.9,106.8c-6.6,1.8-13.4,2.6-20.1,3.9C201.2,320.6,197.9,320.6,194.6,320.6z"/>
<path d="M188.9,226.6c0-2.3,0-4.6,0-7c0-7.5,2.7-11.1,10-13.2c9.5-2.7,16.8-8.2,22-16.5c13-20.7,2.8-48.5-20.6-55.9
	c-1.9-0.6-3.8-1.2-5.6-2.1c-3.9-2.1-5.9-5.5-5.9-10c0-5.6-0.1-11.3,0-16.9c0.2-7.4,4-10.6,11.3-9.6c32.6,4.4,59.6,31.9,63.5,64.5
	c5,41.7-22,77.9-63.3,84.9c-7.1,1.2-11.3-2.2-11.5-9.5C188.8,232.4,188.9,229.5,188.9,226.6z"/>
</svg>
